<svg width="20" height="19" viewBox="0 0 20 19" fill="none" xmlns="http://www.w3.org/2000/svg">
<path d="M1.25 17C1.25 17.7031 1.79688 18.25 2.5 18.25H8.75V12H1.25V17ZM11.25 18.25H17.5C18.1641 18.25 18.75 17.7031 18.75 17V12H11.25V18.25ZM18.75 5.75H17.0703C17.3438 5.28125 17.5 4.77344 17.5 4.1875C17.5 2.3125 15.9375 0.75 14.0625 0.75C12.4219 0.75 11.3672 1.60938 10.0391 3.44531C8.67188 1.60938 7.61719 0.75 6.01562 0.75C4.10156 0.75 2.57812 2.3125 2.57812 4.1875C2.57812 4.77344 2.69531 5.28125 2.96875 5.75H1.25C0.546875 5.75 0 6.33594 0 7V10.125C0 10.4766 0.273438 10.75 0.625 10.75H19.375C19.6875 10.75 20 10.4766 20 10.125V7C20 6.33594 19.4141 5.75 18.75 5.75ZM5.97656 5.75C5.11719 5.75 4.41406 5.08594 4.41406 4.1875C4.41406 3.32812 5.11719 2.625 5.97656 2.625C6.75781 2.625 7.34375 2.78125 9.375 5.75H5.97656ZM14.0625 5.75H10.6641C12.6953 2.78125 13.2422 2.625 14.0625 2.625C14.9219 2.625 15.625 3.32812 15.625 4.1875C15.625 5.08594 14.9219 5.75 14.0625 5.75Z" fill="white"/>
</svg>
